inDegrees=yes
name=ik_S53_A10_T01
DataType=double
version=3
OpenSimVersion=4.3-2021-08-27-4bc7ad9
endheader
time	pelvis_tilt	pelvis_list	pelvis_rotation	pelvis_tx	pelvis_ty	pelvis_tz	hip_flexion_r	hip_adduction_r	hip_rotation_r	knee_angle_r	knee_angle_r_beta	ankle_angle_r	subtalar_angle_r	mtp_angle_r	hip_flexion_l	hip_adduction_l	hip_rotation_l	knee_angle_l	knee_angle_l_beta	ankle_angle_l	subtalar_angle_l	mtp_angle_l	lumbar_extension	lumbar_bending	lumbar_rotation	arm_flex_r	arm_add_r	arm_rot_r	elbow_flex_r	pro_sup_r	wrist_flex_r	wrist_dev_r	arm_flex_l	arm_add_l	arm_rot_l	elbow_flex_l	pro_sup_l	wrist_flex_l	wrist_dev_l
18.49999999999969	-0.5867476392370251	-0.5938368892671251	37.06350438482276	0	0.9399999999999999	0	44.68601939082497	-10.00014328189753	-9.998924824130318	54.75827790698216	0.9557122421989079	0	0	0	44.68601939082497	-10.00014328189753	-9.998924824130318	54.75827790698216	0.9557122421989079	0	0	0	-0.6943276586821964	-0.3611548324317089	-2.297095191686664	63.76149068199579	-5.573592562186969	24.86533111894242	66.62145287509274	42.98104971233462	0	0	64.03249257028686	-7.696851409793222	12.01089247700524	53.88847497169456	71.3939390002905	0	0
18.51999999999969	-0.6148878167086176	-0.6582221697349416	37.20708655214494	0	0.9399999999999999	0	44.68624670005431	-10.00014291915564	-9.998926569570767	54.75839494964189	0.9557142849786855	0	0	0	44.68624670005431	-10.00014291915564	-9.998926569570767	54.75839494964189	0.9557142849786855	0	0	0	-0.7562802194746111	-0.3956286983605823	-2.284530364398156	63.71733348070757	-5.504316703772522	24.85195231090613	64.59805590838397	43.23097320160247	0	0	62.73522976659382	-7.729047263650281	11.98127607199954	52.88647980168754	71.74728037517762	0	0
18.53999999999969	-0.6129488032125857	-0.6565362109521113	37.21589864335612	0	0.9399999999999999	0	44.68634413233784	-10.00014276487966	-9.998927313991546	54.75844544887941	0.95571516635665	0	0	0	44.68634413233784	-10.00014276487966	-9.998927313991546	54.75844544887941	0.95571516635665	0	0	0	-0.7538773957977981	-0.3955253665453883	-2.296567294111839	63.71344807938888	-5.500891737220434	24.85340651760195	64.58403722126846	43.21804603013295	0	0	61.20547161867772	-7.862569077720367	12.21733045774751	52.09450214303261	71.49842318849853	0	0
18.55999999999969	-0.6792610608813281	-0.7570970421143114	37.28074377501409	0	0.9399999999999999	0	44.68866232536541	-10.00014027392053	-9.998941231276373	54.7600163211644	0.9557425832501514	0	0	0	44.68866232536541	-10.00014027392053	-9.998941231276373	54.7600163211644	0.9557425832501514	0	0	0	-0.8560213460757081	-0.4429895084464007	-2.211332094917378	63.60602009581001	-5.183227218637375	24.94230543720928	60.52958598367822	43.88302609066143	0	0	59.89151871361386	-7.821208318323138	12.77197344878829	51.25342268720567	70.91685330894559	0	0
18.57999999999969	-0.7041284075172893	-0.8233849615395102	37.21918443357449	0	0.9399999999999999	0	44.69439128203819	-10.00013416921472	-9.998975489645462	54.76388782125782	0.9558101536737728	0	0	0	44.69439128203819	-10.00013416921472	-9.998975489645462	54.76388782125782	0.9558101536737728	0	0	0	-0.9159822776794309	-0.4639013875977565	-2.086833801785318	57.0996585116652	-6.773059938990017	26.36794456162064	64.19077203268077	45.50560201124446	0	0	58.40421422213614	-7.803357035548153	13.35156048465862	50.55602828394811	70.51149649480691	0	0
18.59999999999969	-0.7513702457929639	-0.8939295719140623	37.17395049503052	0	0.9399999999999999	0	44.69846649731558	-10.00012998797513	-9.998999328248146	54.76667453038931	0.9558587909234127	0	0	0	44.69846649731558	-10.00012998797513	-9.998999328248146	54.76667453038931	0.9558587909234127	0	0	0	-0.9963536361732569	-0.4881812289032384	-2.011243738260761	55.80491744999908	-6.787337213651192	26.578467599575	63.13945815375559	46.0991657289493	0	0	55.33204602180812	-7.7906270980138	13.87955838368749	51.09738356211411	70.50193179724594	0	0
18.61999999999969	-0.8000063961122668	-0.9598147327761313	37.19311212066537	0	0.9399999999999999	0	44.70016974226982	-10.00012825247058	-9.999009266176126	54.76782818497519	0.9558789259943672	0	0	0	44.70016974226982	-10.00012825247058	-9.999009266176126	54.76782818497519	0.9558789259943672	0	0	0	-1.077034943956177	-0.5119212692648738	-1.997603523875782	55.7863113459298	-6.571845448647426	26.61854117195253	61.03102367234015	46.26162523482247	0	0	53.98887895209221	-7.392503238638475	13.76132524884965	47.66123851834509	70.95530797591975	0	0
18.63999999999969	-0.8491255919070488	-1.023408231149814	37.21622037452834	0	0.9399999999999999	0	44.70248192808592	-10.00012592034314	-9.999022667719325	54.76940526103623	0.9559064511641865	0	0	0	44.70248192808592	-10.00012592034314	-9.999022667719325	54.76940526103623	0.9559064511641865	0	0	0	-1.160586423554374	-0.5263919687957299	-1.980777498743346	54.25038203589911	-6.351746309195322	26.75885997694704	57.63692706854584	47.08316515828074	0	0	52.95787267225166	-7.253244063667079	13.44029437770694	47.42768287195302	71.52929132272028	0	0
18.65999999999969	-0.8622438558945633	-1.059836637087202	37.30186285701581	0	0.9399999999999999	0	44.70266552973259	-10.00012565117095	-9.999024011573015	54.76950133158709	0.9559081279116134	0	0	0	44.70266552973259	-10.00012565117095	-9.999024011573015	54.76950133158709	0.9559081279116134	0	0	0	-1.194169009528421	-0.5456833094009612	-2.023377542786083	54.29768578899328	-6.356590582913745	26.6866785401335	57.64091619205855	47.1350400650965	0	0	52.96938374768509	-7.099884655428889	13.48741592655649	45.22013611096456	71.31102522271209	0	0
18.67999999999969	-0.9303362334229646	-1.155783792189422	37.3491200376186	0	0.9399999999999999	0	44.70529959355916	-10.00012302020222	-9.999039199126594	54.77129736223969	0.9559394745599679	0	0	0	44.70529959355916	-10.00012302020222	-9.999039199126594	54.77129736223969	0.9559394745599679	0	0	0	-1.309291663801359	-0.5813418313518058	-1.963469915520377	51.52537532576524	-6.041684916490558	26.1549295899628	54.72198974070863	49.62240295603323	0	0	52.07119015332984	-6.787336452083542	13.06553166930259	43.75779166972782	71.7796520473136	0	0
18.69999999999969	-0.9500030058298046	-1.201507247100102	37.35382612123394	0	0.9399999999999999	0	44.70744040989043	-10.00012089033843	-9.999051519586935	54.7727518309944	0.955964859828605	0	0	0	44.70744040989043	-10.00012089033843	-9.999051519586935	54.7727518309944	0.955964859828605	0	0	0	-1.358103180395226	-0.6002835872710753	-1.957252707286906	50.13401640516281	-5.680831419507517	25.60267661957958	52.91795386597643	51.33566033670601	0	0	51.05688253868433	-6.392531590621363	12.37929624600357	42.04424749837625	72.5228920895202	0	0
18.71999999999969	-0.9773643672505206	-1.261516502234013	37.36881014579176	0	0.9399999999999999	0	44.70929986520213	-10.00011908773589	-9.99906206543687	54.77402574989066	0.9559870939077482	0	0	0	44.70929986520213	-10.00011908773589	-9.99906206543687	54.77402574989066	0.9559870939077482	0	0	0	-1.418041064512396	-0.6294873152721049	-1.938022027651431	48.82184444098859	-5.292660124204311	24.88192665195095	51.10547987986482	52.80036085669423	0	0	50.11247264663429	-5.929255895304467	11.60691696388566	40.19057319397643	73.38102255381685	0	0
18.73999999999969	-1.039978648981053	-1.350218195664762	37.37212403769524	0	0.9399999999999999	0	44.71135139184496	-10.00011707707269	-9.999073778539968	54.77541717049974	0.9560113787786566	0	0	0	44.71135139184496	-10.00011707707269	-9.999073778539968	54.77541717049974	0.9560113787786566	0	0	0	-1.522841462935492	-0.6615494569843461	-1.92488072566169	47.74310666677857	-4.753396514453441	24.1021015224658	48.9953657164524	54.24236725600822	0	0	49.39985776166813	-5.575574493040475	10.82884051371835	39.42305289268984	74.33564037124162	0	0
18.75999999999969	-1.105187883233288	-1.421981192122665	37.38871829066722	0	0.9399999999999999	0	44.71249223597163	-10.00011593370615	-9.999080375528138	54.77618145481139	0.9560247180563164	0	0	0	44.71249223597163	-10.00011593370615	-9.999080375528138	54.77618145481139	0.9560247180563164	0	0	0	-1.620521777471793	-0.6786166925665998	-1.905853597072574	46.65128775311926	-4.220670184294711	23.45381842327751	47.03281664651794	55.26289881552087	0	0	48.62616795633821	-5.176851548420626	10.31078310038904	37.57967452438788	74.89768392697002	0	0
18.77999999999969	-1.166948376090692	-1.488752757177475	37.38737205262341	0	0.9399999999999999	0	44.7135473704246	-10.00011483960263	-9.999086596978204	54.77687727530455	0.9560368624149248	0	0	0	44.7135473704246	-10.00011483960263	-9.999086596978204	54.77687727530455	0.9560368624149248	0	0	0	-1.710866795059786	-0.6904722953758965	-1.880468864128553	45.49846964969333	-3.585672893514448	23.01912183223236	45.13347994173682	56.13889021895207	0	0	47.7439620488337	-4.726096534697874	10.33083237156832	36.05844862222462	75.23877739521497	0	0
18.79999999999969	-1.197281379239522	-1.521572985248359	37.35960625309927	0	0.9399999999999999	0	44.71525340910598	-10.00011320685303	-9.999096202964093	54.7780433785687	0.9560572147563026	0	0	0	44.71525340910598	-10.00011320685303	-9.999096202964093	54.7780433785687	0.9560572147563026	0	0	0	-1.754017344798362	-0.6995686735758773	-1.834057054465705	44.38440406485392	-3.192255850378725	22.88642990942482	45.59317546338762	56.89284358531129	0	0	46.73104963107405	-4.23527071204524	10.81970648322609	34.80444503535321	75.15751887116562	0	0
18.81999999999969	-1.264317133043535	-1.574016050348124	37.32477233963079	0	0.9399999999999999	0	44.71617565777844	-10.00011225773575	-9.999101620776811	54.77864980014951	0.9560677988095427	0	0	0	44.71617565777844	-10.00011225773575	-9.999101620776811	54.77864980014951	0.9560677988095427	0	0	0	-1.837674668898768	-0.7061449667957687	-1.804380089714689	43.33341647041154	-2.609739600835327	22.82809608545176	43.74596402952373	57.55540690598269	0	0	45.78921718939478	-3.601338878153934	11.56082625829337	33.35166423876974	75.08761281167234	0	0
18.83999999999969	-1.375013581049688	-1.688122321255616	37.2750936242477	0	0.9399999999999999	0	44.71729999434215	-10.00011118557257	-9.999107940764583	54.7794157033117	0.9560811663414743	0	0	0	44.71729999434215	-10.00011118557257	-9.999107940764583	54.7794157033117	0.9560811663414743	0	0	0	-1.995427470772233	-0.7279845630451985	-1.78979352778874	42.67065134019303	-2.15024770039203	22.88601033383315	44.11975824889056	58.06481728484544	0	0	45.05670816827053	-3.045812997609927	12.17401407020803	31.9311481691711	75.14247208000531	0	0
18.85999999999969	-1.460991194898685	-1.743737524212307	37.24956550694123	0	0.9399999999999999	0	44.71872222766225	-10.00010982547281	-9.999115955205864	54.78037746724107	0.9560979522886688	0	0	0	44.71872222766225	-10.00010982547281	-9.999115955205864	54.78037746724107	0.9560979522886688	0	0	0	-2.096142291953577	-0.7201337582096561	-1.769223492048293	40.85632785030885	-0.8129247310444248	22.46315895763118	40.27475021780005	59.49268704827028	0	0	44.38002768366276	-2.471935502411639	12.47052497327982	30.50551790748437	75.43156827118707	0	0
18.87999999999969	-1.532058083408666	-1.785854289967671	37.1855046615244	0	0.9399999999999999	0	44.71892535719896	-10.0001095480107	-9.999117387212603	54.78048349669221	0.9560998028516953	0	0	0	44.71892535719896	-10.0001095480107	-9.999117387212603	54.78048349669221	0.9560998028516953	0	0	0	-2.17448270516114	-0.7207483456253942	-1.703113379974931	40.20767566534594	-0.2500941913913101	22.04812772536636	38.53241743714914	60.05672049496219	0	0	43.76629187946988	-1.985524593197244	12.59860391193808	29.11269442828419	75.92838913699279	0	0
18.89999999999969	-1.620399160035523	-1.831726914492776	37.08853333405614	0	0.9399999999999999	0	44.71906896024212	-10.00010935236177	-9.999118398072431	54.7805585564297	0.9561011128912501	0	0	0	44.71906896024212	-10.00010935236177	-9.999118398072431	54.7805585564297	0.9561011128912501	0	0	0	-2.269349744607027	-0.7115323461813082	-1.597438190501817	39.7904485515689	0.2841500850496549	21.34242007494879	36.69280516226892	60.76272335004911	0	0	42.78583016707822	-1.340007834572496	12.50657415373968	28.98617526096664	76.57939678921741	0	0
18.91999999999969	-1.659797134888567	-1.849765936837241	36.96905963186318	0	0.9399999999999999	0	44.71926112682669	-10.00010909146193	-9.999119748063976	54.78065918136377	0.9561028691276592	0	0	0	44.71926112682669	-10.00010909146193	-9.999119748063976	54.78065918136377	0.9561028691276592	0	0	0	-2.307339223307654	-0.7126576762169754	-1.478304600944863	39.28962384513767	1.002334360961531	20.43898096341715	33.13165090618279	61.14175589228747	0	0	42.77843182230031	-1.120961783386004	12.45349581438981	25.80882885227754	77.20846881758152	0	0
